<?xml version="1.0" encoding="utf-8"?>
<!-- Generator: Adobe Illustrator 28.0.0, SVG Export Plug-In . SVG Version: 6.00 Build 0)  -->
<svg version="1.1" id="Lager_1" xmlns="http://www.w3.org/2000/svg" xmlns:xlink="http://www.w3.org/1999/xlink" x="0px" y="0px"
	 viewBox="0 0 200 100" style="enable-background:new 0 0 200 100;" xml:space="preserve">
<style type="text/css">
	.st0{fill:#1A3D3C;stroke:#1D1D1B;stroke-miterlimit:10;}
</style>
<polygon class="st0" points="22.17,50.91 7.5,17.82 7.5,84 "/>
<g>
	<path d="M22.47,39.98h4.74l2.48,8.86c0.47,1.75,0.79,3.25,0.96,4.49h0.06c0.15-1.09,0.32-1.99,0.5-2.69l2.76-10.66h4.86
		l-6.02,20.04h-4.22L22.47,39.98z"/>
	<path d="M40.8,42.06c0-0.64,0.23-1.19,0.68-1.64c0.45-0.45,0.99-0.68,1.62-0.68c0.64,0,1.19,0.23,1.64,0.68
		c0.45,0.45,0.68,1,0.68,1.64c0,0.63-0.23,1.17-0.68,1.63c-0.45,0.46-1,0.68-1.64,0.68c-0.62,0-1.16-0.23-1.61-0.68
		S40.8,42.7,40.8,42.06z M40.92,46.21h4.37v13.81h-4.37V46.21z"/>
	<path d="M55.6,38.87h4.34v21.15h-4.37v-1.82h-0.06c-0.97,1.52-2.07,2.28-3.29,2.28c-1.28,0-2.31-0.67-3.1-2.01
		c-0.79-1.34-1.18-3.13-1.18-5.38c0-2.23,0.4-4.01,1.2-5.34c0.8-1.33,1.86-2,3.17-2c1.19,0,2.29,0.69,3.29,2.06V38.87z M55.6,53.01
		c0-2.27-0.55-3.41-1.65-3.41c-1.13,0-1.7,1.21-1.7,3.62c0,1.07,0.15,1.9,0.46,2.49c0.31,0.58,0.73,0.88,1.27,0.88
		c0.5,0,0.9-0.31,1.19-0.93C55.46,55.03,55.6,54.15,55.6,53.01z"/>
	<path d="M69.76,55.8h3.68c-0.7,3.1-2.45,4.65-5.25,4.65c-1.75,0-3.14-0.67-4.16-2c-1.02-1.33-1.53-3.17-1.53-5.51
		c0-2.18,0.51-3.93,1.53-5.25c1.02-1.32,2.38-1.97,4.07-1.97c1.02,0,2,0.32,2.94,0.95s1.63,1.48,2.06,2.53
		c0.43,1.05,0.67,2.71,0.72,4.97h-7.28c0.06,2.05,0.63,3.08,1.71,3.08c0.37,0,0.7-0.13,0.99-0.41C69.53,56.58,69.7,56.23,69.76,55.8
		z M66.59,51.81h3.17c-0.03-0.97-0.17-1.69-0.41-2.16s-0.62-0.7-1.14-0.7c-0.58,0-1,0.23-1.25,0.68S66.59,50.81,66.59,51.81z"/>
	<path d="M81.56,45.73c1.99,0,3.51,0.66,4.55,1.99s1.56,3.17,1.56,5.53c0,2.31-0.54,4.1-1.62,5.37c-1.08,1.27-2.58,1.9-4.49,1.9
		c-1.83,0-3.29-0.65-4.36-1.94c-1.08-1.29-1.61-3.07-1.61-5.33c0-2.36,0.51-4.21,1.54-5.53C78.15,46.39,79.63,45.73,81.56,45.73z
		 M81.59,56.61c0.57,0,1-0.26,1.28-0.8c0.29-0.53,0.43-1.44,0.43-2.72c0-1.27-0.14-2.16-0.42-2.67c-0.28-0.51-0.7-0.77-1.26-0.77
		c-0.55,0-0.97,0.25-1.26,0.74c-0.29,0.5-0.44,1.4-0.44,2.72C79.93,55.45,80.48,56.61,81.59,56.61z"/>
	<path d="M98.14,46.21v-3.2c0-1.29,0.42-2.3,1.25-3.04c0.84-0.74,2-1.1,3.49-1.1h1.74v4.31h-1.1c-0.31,0-0.56,0.11-0.76,0.34
		c-0.2,0.23-0.29,0.52-0.29,0.89v1.8h2.15v3.63h-2.15v10.18h-4.34V49.84h-1.53v-3.63H98.14z"/>
	<path d="M111.6,45.73c1.99,0,3.51,0.66,4.55,1.99s1.56,3.17,1.56,5.53c0,2.31-0.54,4.1-1.62,5.37c-1.08,1.27-2.58,1.9-4.49,1.9
		c-1.83,0-3.29-0.65-4.36-1.94c-1.08-1.29-1.61-3.07-1.61-5.33c0-2.36,0.51-4.21,1.54-5.53C108.19,46.39,109.67,45.73,111.6,45.73z
		 M108.24,44.15c-0.57,0-1.05-0.2-1.44-0.59c-0.39-0.39-0.58-0.87-0.58-1.44c0-0.57,0.2-1.05,0.58-1.44
		c0.39-0.39,0.87-0.59,1.44-0.59c0.56,0,1.04,0.19,1.43,0.59c0.4,0.39,0.59,0.87,0.59,1.44c0,0.57-0.2,1.05-0.59,1.44
		C109.28,43.96,108.8,44.15,108.24,44.15z M111.63,56.61c0.57,0,1-0.26,1.28-0.8c0.29-0.53,0.43-1.44,0.43-2.72
		c0-1.27-0.14-2.16-0.42-2.67c-0.28-0.51-0.7-0.77-1.26-0.77c-0.55,0-0.97,0.25-1.26,0.74c-0.29,0.5-0.44,1.4-0.44,2.72
		C109.97,55.45,110.52,56.61,111.63,56.61z M115.03,44.15c-0.56,0-1.04-0.2-1.43-0.59c-0.4-0.39-0.59-0.87-0.59-1.44
		c0-0.57,0.2-1.05,0.59-1.44c0.4-0.39,0.87-0.59,1.43-0.59c0.57,0,1.05,0.19,1.44,0.59c0.39,0.39,0.59,0.87,0.59,1.44
		c0,0.57-0.2,1.05-0.59,1.44C116.08,43.96,115.6,44.15,115.03,44.15z"/>
	<path d="M124.46,46.21v2.31h0.06c1.04-1.8,2.14-2.7,3.29-2.7c0.17,0,0.41,0.03,0.71,0.09v4.28c-0.53-0.09-1.02-0.14-1.47-0.14
		c-1.6,0-2.4,1.04-2.4,3.11v6.86h-4.35V46.21H124.46z"/>
	<path d="M137.01,46.21h4.31c1,4.36,1.57,6.95,1.7,7.76h0.06l1.47-7.76h3.69l1.47,7.63h0.06c0.24-1.16,0.41-1.94,0.5-2.33l1.26-5.3
		h4.31l-4.28,13.81h-3.29c-1.12-4.12-1.75-6.61-1.88-7.45h-0.06c-0.09,0.7-0.7,3.18-1.82,7.45h-3.26L137.01,46.21z"/>
	<path d="M163.96,55.8h3.68c-0.7,3.1-2.45,4.65-5.25,4.65c-1.75,0-3.14-0.67-4.16-2c-1.02-1.33-1.53-3.17-1.53-5.51
		c0-2.18,0.51-3.93,1.53-5.25c1.02-1.32,2.38-1.97,4.07-1.97c1.02,0,2,0.32,2.94,0.95s1.63,1.48,2.06,2.53
		c0.43,1.05,0.67,2.71,0.72,4.97h-7.28c0.06,2.05,0.63,3.08,1.71,3.08c0.37,0,0.7-0.13,0.99-0.41S163.9,56.23,163.96,55.8z
		 M160.79,51.81h3.17c-0.03-0.97-0.17-1.69-0.41-2.16s-0.62-0.7-1.14-0.7c-0.58,0-1,0.23-1.25,0.68
		C160.92,50.08,160.79,50.81,160.79,51.81z"/>
	<path d="M170.56,38.87h4.35v9.01h0.08c0.53-0.73,1.03-1.27,1.49-1.61c0.46-0.34,1.06-0.51,1.79-0.51c1.22,0,2.24,0.64,3.06,1.91
		c0.82,1.28,1.23,3.11,1.23,5.49c0,2.2-0.39,3.97-1.18,5.31c-0.79,1.34-1.8,2.01-3.06,2.01c-1.3,0-2.42-0.75-3.35-2.25h-0.08v1.79
		h-4.35V38.87z M178.25,53.04c0-2.29-0.58-3.44-1.76-3.44c-1.05,0-1.58,1.11-1.58,3.32c0,1.27,0.14,2.2,0.41,2.79
		c0.28,0.58,0.71,0.88,1.31,0.88C177.72,56.58,178.25,55.4,178.25,53.04z"/>
	<path d="M185.14,38.87h4.35v9.01h0.08c0.53-0.73,1.03-1.27,1.49-1.61c0.46-0.34,1.06-0.51,1.79-0.51c1.22,0,2.24,0.64,3.06,1.91
		c0.82,1.28,1.23,3.11,1.23,5.49c0,2.2-0.39,3.97-1.18,5.31c-0.79,1.34-1.8,2.01-3.06,2.01c-1.3,0-2.42-0.75-3.35-2.25h-0.08v1.79
		h-4.35V38.87z M192.83,53.04c0-2.29-0.58-3.44-1.76-3.44c-1.05,0-1.58,1.11-1.58,3.32c0,1.27,0.14,2.2,0.41,2.79
		c0.28,0.58,0.71,0.88,1.31,0.88C192.29,56.58,192.83,55.4,192.83,53.04z"/>
</g>
<g>
</g>
<g>
</g>
<g>
</g>
<g>
</g>
<g>
</g>
<g>
</g>
</svg>
